<?xml version="1.0" encoding="utf-8"?>
<!-- Generator: Adobe Illustrator 24.2.1, SVG Export Plug-In . SVG Version: 6.00 Build 0)  -->
<svg version="1.1" id="Layer_1" xmlns="http://www.w3.org/2000/svg" xmlns:xlink="http://www.w3.org/1999/xlink" x="0px" y="0px"
	 viewBox="0 0 400 150" style="enable-background:new 0 0 400 150;" xml:space="preserve">
<style type="text/css">
	.st0{fill:#333333;}
	.st1{fill:#016765;}
	.st2{fill:#A13322;}
	.st3{fill:#5A5A5C;}
	.st4{fill:#640E0E;}
	.st5{font-family:'DBOzoneX-Bold';}
	.st6{font-size:19.1024px;}
	.st7{font-size:14.5345px;}
	.st8{letter-spacing:2;}
</style>
<g>
	<g>
		<polygon class="st0" points="320.1,100.3 311.7,100.3 342.6,56.9 311.7,13.5 320.1,13.5 351.3,56.9 		"/>
	</g>
</g>
<path class="st1" d="M161.1,13.5v56.9c0,10.2-6.1,16.2-15.5,16.2c-9.4,0-15.3-6.1-15.3-16.2V19c0-3-2.5-5.5-5.5-5.5h-8.2h-0.8h-2.7
	v0h-12.7h-0.8h-2.9c-0.4,0-0.9,0.1-1.4,0.2c-1.2,0.3-2.4,1-3.2,2L63.8,50.6V13.5H46.4v87h17.4V73.9l11.5-13.6L98,100.5h20.2
	L86.7,47.3l25.2-30.1c0.2-0.2,0.5-0.3,0.7-0.2c0.2,0.1,0.4,0.3,0.4,0.6v14.1v12V71c0,18.7,14.4,31,32.6,31c18.2,0,32.6-12.3,32.6-31
	V13.5H161.1z"/>
<g>
	<path class="st2" d="M212.4,29.4c-4.4,0-7.5,1-9.5,2.9c-2,2-3,4.3-3,7.1c0,2.8,0.9,4.8,2.8,6.3c1.9,1.4,4.2,2.3,7,2.7l10.1,1.4
		c7.5,1.1,13.3,3.8,17.5,7.8c4.2,4.1,6.3,9.9,6.3,17.6c0,4.2-0.8,8-2.5,11.3c-1.7,3.3-4,6-6.9,8.3c-2.9,2.2-6.4,4-10.3,5.2
		c-4,1.2-8.2,1.8-12.8,1.8c-6.8,0-12.8-0.9-18-2.7c-5.2-1.8-10.1-4.9-14.5-9.4l11.9-11.7c2.9,2.8,6,4.7,9.5,5.8
		c3.5,1.1,7.2,1.7,11.1,1.7c4.8,0,8.5-0.9,10.9-2.7c2.5-1.8,3.7-4.3,3.7-7.5c0-3-0.9-5.2-2.6-6.5c-1.7-1.4-4.1-2.3-7.1-2.9
		l-10.3-1.4c-7.2-1.1-12.9-3.6-17.1-7.4c-4.2-3.8-6.3-9.5-6.3-17c0-7.9,2.7-14.3,8-19.2c5.3-4.9,12.9-7.3,22.6-7.3h62.4l7.3,7.9
		l-7.3,8L212.4,29.4z"/>
</g>
<g>
	<g>
		<path class="st2" d="M246.3,99.9l0-67.1h17.7v15.9h33.8v16h-33.8v19.2h39.6v16H246.3z"/>
	</g>
</g>
<g>
	<g>
		<polygon class="st0" points="337.4,100.3 324.8,100.3 355.8,56.9 324.8,13.5 337.4,13.5 368.6,56.9 		"/>
	</g>
</g>
<g>
	<polygon class="st2" points="300,29.4 291.6,29.4 299,21.4 291.6,13.5 300,13.5 307.3,21.4 	"/>
</g>
<g>
	<polygon class="st2" points="288,29.4 279.6,29.4 287,21.4 279.6,13.5 288,13.5 295.3,21.4 	"/>
</g>
<g>
	<g>
		<polygon class="st3" points="342.6,56.9 311.6,13.5 320.1,13.5 351.3,56.9 		"/>
	</g>
</g>
<g>
	<g>
		<polygon class="st3" points="355.7,56.7 324.8,13.3 337.4,13.3 368.6,56.7 		"/>
	</g>
</g>
<g>
	<polygon class="st4" points="307.3,21.4 300,29.4 291.6,29.4 299,21.4 	"/>
</g>
<g>
	<polygon class="st4" points="295.3,21.4 288,29.4 279.6,29.4 287,21.4 	"/>
</g>
<text transform="matrix(1 0 0 1 45.2371 122.0678)" class="st0 st5 st6">FACULTY OF SCIENCE AND ENGINEERING</text>
<text transform="matrix(1 0 0 1 162.697 136.6576)" class="st3 st5 st7 st8">KASETSART UNIVERSITY</text>
<rect x="46.4" y="132.8" class="st3" width="109.6" height="1.5"/>
</svg>
